<svg id="stage" xmlns="http://www.w3.org/2000/svg" xmlns:xlink="http://www.w3.org/1999/xlink" viewBox="0 0 960 500"><defs><style>.cls-1,.cls-6,.cls-7,.cls-8{fill:none;}.cls-2{fill:url(#linear-gradient);}.cls-3{clip-path:url(#clip-path);}.cls-4{opacity:0.25;fill:url(#radial-gradient);}.cls-5{clip-path:url(#clip-path-2);}.cls-6,.cls-7,.cls-8{stroke:#191919;}.cls-6,.cls-7,.cls-8,.cls-9{stroke-miterlimit:10;}.cls-7,.cls-9{stroke-width:2px;}.cls-8{stroke-width:3px;}.cls-14,.cls-15,.cls-9{fill:#fff;}.cls-9{stroke:#231f20;}.cls-10{clip-path:url(#clip-path-3);}.cls-11{fill:url(#linear-gradient-2);}.cls-12{opacity:0.2;fill:url(#radial-gradient-2);}.cls-13{fill:url(#radial-gradient-3);}.cls-14{opacity:0.7;}.cls-15{opacity:0.5;}</style><linearGradient id="linear-gradient" x1="480" y1="500" x2="480" y2="352" gradientUnits="userSpaceOnUse"><stop offset="0" stop-color="#a97755"/><stop offset="0.42" stop-color="#a77654"/><stop offset="0.56" stop-color="#a07150"/><stop offset="0.67" stop-color="#956949"/><stop offset="0.76" stop-color="#845d40"/><stop offset="0.83" stop-color="#6e4e33"/><stop offset="0.9" stop-color="#523b24"/><stop offset="0.95" stop-color="#332512"/><stop offset="1" stop-color="#141000"/></linearGradient><clipPath id="clip-path"><rect id="floor_highlight_clipping_mask" class="cls-1" y="352" width="960" height="148"/></clipPath><radialGradient id="radial-gradient" cx="477.83" cy="430" r="321.04" gradientTransform="translate(-332.24 364.99) scale(1.7 0.16)" gradientUnits="userSpaceOnUse"><stop offset="0" stop-color="#fff"/><stop offset="1" stop-color="#fff" stop-opacity="0"/></radialGradient><clipPath id="clip-path-2"><rect id="floorboards_cliiping_mask" class="cls-1" width="960" height="500"/></clipPath><clipPath id="clip-path-3"><rect id="back_wall_clipping_mask" class="cls-1" width="960" height="352.83"/></clipPath><linearGradient id="linear-gradient-2" x1="480" x2="480" y2="352.83" gradientUnits="userSpaceOnUse"><stop offset="0" stop-color="#8b5e3c"/><stop offset="0.43" stop-color="#895d3b"/><stop offset="0.59" stop-color="#825838"/><stop offset="0.7" stop-color="#775132"/><stop offset="0.79" stop-color="#664529"/><stop offset="0.87" stop-color="#50371e"/><stop offset="0.94" stop-color="#352611"/><stop offset="1" stop-color="#161101"/><stop offset="1" stop-color="#141000"/></linearGradient><radialGradient id="radial-gradient-2" cx="477.83" cy="172" r="413.03" gradientTransform="translate(0 103.44) scale(1 0.4)" xlink:href="#radial-gradient"/><radialGradient id="radial-gradient-3" cx="480" cy="176" r="414.23" gradientTransform="translate(0 105.85) scale(1 0.4)" gradientUnits="userSpaceOnUse"><stop offset="0" stop-color="#3c2415" stop-opacity="0"/><stop offset="0.73" stop-color="#3c2415" stop-opacity="0.03"/><stop offset="0.99" stop-color="#3c2415" stop-opacity="0.14"/><stop offset="1" stop-color="#3c2415" stop-opacity="0.15"/></radialGradient></defs><title>stage</title><g id="floor"><rect id="floor-2" data-name="floor" class="cls-2" y="352" width="960" height="148"/><g id="floor_highlight"><g class="cls-3"><ellipse id="floor_highlight-2" data-name="floor_highlight" class="cls-4" cx="477.83" cy="435.5" rx="763.17" ry="64.5"/></g></g><g id="floorboards"><g class="cls-5"><g id="floorboards-2" data-name="floorboards"><line id="floorboard_line1" class="cls-6" x1="54.25" y1="352" x2="-1.36" y2="380.19"/><line id="floorboard_line2" class="cls-7" x1="121" y1="352" x2="-1.75" y2="416.67"/><line id="floorboard_line3" class="cls-6" x1="164.25" y1="352" x2="-1.69" y2="447.72"/><line id="floorboard_line4" class="cls-6" x1="216.67" y1="352" x2="-0.96" y2="497.64"/><line id="floorboard_line5" class="cls-6" x1="251" y1="352" x2="58.02" y2="500.76"/><line id="floorboard_line6" class="cls-8" x1="294" y1="352" x2="134.68" y2="502.51"/><line id="floorboard_line7" class="cls-6" x1="340" y1="352" x2="222.97" y2="501.75"/><line id="floorboard_line8" class="cls-7" x1="387.33" y1="352" x2="308.94" y2="501.38"/><line id="floorboard_line9" class="cls-6" x1="434" y1="352" x2="393.29" y2="501.38"/><line id="floorboard_line10" class="cls-6" x1="478.33" y1="352" x2="478.33" y2="500"/><line id="floorboard_line11" class="cls-8" x1="524" y1="352" x2="562.47" y2="501.84"/><line id="floorboard_line12" class="cls-6" x1="562" y1="352" x2="631.08" y2="500.89"/><line id="floorboard_line13" class="cls-6" x1="606" y1="352" x2="712.64" y2="500.89"/><line id="floorboard_line14" class="cls-7" x1="649.33" y1="352" x2="796.07" y2="502.12"/><line id="floorboard_line15" class="cls-6" x1="694.33" y1="352" x2="874.83" y2="500.68"/><line id="floorboard_line16" class="cls-6" x1="737.67" y1="352" x2="950.64" y2="500.91"/><line id="floorboard_line17" class="cls-7" x1="961.41" y1="460.17" x2="778.33" y2="352"/><line id="floorboard_line18" class="cls-6" x1="961.04" y1="424.55" x2="824.33" y2="352"/><line id="floorboard_line19" class="cls-6" x1="960.65" y1="400.32" x2="862.33" y2="352"/><line id="floorboard_line20" class="cls-8" x1="962.19" y1="376.98" x2="906.67" y2="352"/></g></g></g></g><g id="labels"><g id="drums_label"><rect id="drums_label_bg" class="cls-9" x="779.68" y="457" width="112.49" height="32"/><g id="drums_label-2" data-name="drums_label"><path d="M786.83,464.1H795a9.87,9.87,0,0,1,3.93.66,6.36,6.36,0,0,1,2.47,1.9,7.74,7.74,0,0,1,1.41,2.86,13.1,13.1,0,0,1,.44,3.47,12,12,0,0,1-.65,4.45,7.27,7.27,0,0,1-1.81,2.65,6,6,0,0,1-2.49,1.42,12.62,12.62,0,0,1-3.3.49h-8.21Zm5.53,4.06v9.78h1.35a5.64,5.64,0,0,0,2.47-.39,2.56,2.56,0,0,0,1.14-1.34,8.37,8.37,0,0,0,.42-3.11c0-1.89-.31-3.19-.93-3.89a3.92,3.92,0,0,0-3.07-1Z"/><path d="M806.27,482V464.1h9.22a13.53,13.53,0,0,1,3.92.44,4.22,4.22,0,0,1,2.18,1.63,4.91,4.91,0,0,1,.83,2.9,4.76,4.76,0,0,1-2.38,4.32,6.33,6.33,0,0,1-1.94.71,5.47,5.47,0,0,1,1.44.66,5.63,5.63,0,0,1,.88.94,6.89,6.89,0,0,1,.78,1.11l2.68,5.19h-6.25l-3-5.47a4.11,4.11,0,0,0-1-1.38,2.37,2.37,0,0,0-1.36-.41h-.48V482Zm5.56-10.64h2.33a8.77,8.77,0,0,0,1.46-.25,1.44,1.44,0,0,0,.9-.56,1.81,1.81,0,0,0-.2-2.37,3.34,3.34,0,0,0-2.06-.46h-2.43Z"/><path d="M836.86,464.1h5.52v10.67a9,9,0,0,1-.49,3,6.59,6.59,0,0,1-1.55,2.47,6.39,6.39,0,0,1-2.22,1.48,11.09,11.09,0,0,1-3.87.59,24.76,24.76,0,0,1-2.85-.18,7.44,7.44,0,0,1-2.58-.72,6.55,6.55,0,0,1-1.9-1.55,5.62,5.62,0,0,1-1.18-2.06,10.76,10.76,0,0,1-.51-3V464.1h5.52V475a3.12,3.12,0,0,0,.81,2.29,3.5,3.5,0,0,0,4.49,0,3.12,3.12,0,0,0,.81-2.3Z"/><path d="M846,464.1h7.27L856.06,475l2.78-10.89h7.27V482h-4.53V468.35L858.09,482H854l-3.48-13.65V482H846Z"/><path d="M868.67,476.08l5.27-.33a4,4,0,0,0,.69,1.95,2.91,2.91,0,0,0,2.44,1.09,2.72,2.72,0,0,0,1.83-.56,1.65,1.65,0,0,0,.64-1.28,1.67,1.67,0,0,0-.61-1.25,7.09,7.09,0,0,0-2.83-1,12,12,0,0,1-5.19-2.17,4.36,4.36,0,0,1-1.56-3.45,4.65,4.65,0,0,1,.8-2.61,5.28,5.28,0,0,1,2.4-1.93,11.2,11.2,0,0,1,4.4-.7,8.92,8.92,0,0,1,5.23,1.28,5.47,5.47,0,0,1,2.14,4.05l-5.21.31a2.43,2.43,0,0,0-2.71-2.31,2.22,2.22,0,0,0-1.45.41,1.24,1.24,0,0,0-.49,1,1,1,0,0,0,.4.76,4.42,4.42,0,0,0,1.86.66,23.14,23.14,0,0,1,5.19,1.58,5.54,5.54,0,0,1,2.29,2,5.08,5.08,0,0,1,.71,2.65,5.72,5.72,0,0,1-.95,3.17,6,6,0,0,1-2.66,2.2,10.78,10.78,0,0,1-4.31.75c-3,0-5.15-.58-6.33-1.75A7,7,0,0,1,868.67,476.08Z"/></g></g><g id="bass_label"><rect id="bass_label_bg" class="cls-9" x="552.18" y="457" width="93.49" height="32"/><g id="bass_label-2" data-name="bass_label"><path d="M563.77,464.1h10.35a5.61,5.61,0,0,1,4,1.29,4.15,4.15,0,0,1,1.39,3.17,4,4,0,0,1-1,2.72,4.38,4.38,0,0,1-1.93,1.2,5.06,5.06,0,0,1,2.84,1.59,4.41,4.41,0,0,1,.91,2.84,4.88,4.88,0,0,1-.65,2.5,4.75,4.75,0,0,1-1.77,1.76,6.05,6.05,0,0,1-2.1.59,24.69,24.69,0,0,1-2.48.24h-9.54Zm5.57,7h2.41a2.76,2.76,0,0,0,1.8-.44,1.63,1.63,0,0,0,.51-1.29,1.52,1.52,0,0,0-.51-1.22,2.74,2.74,0,0,0-1.76-.44h-2.45Zm0,7h2.82a3.09,3.09,0,0,0,2-.5,1.71,1.71,0,0,0,.58-1.36,1.57,1.57,0,0,0-.58-1.28,3.23,3.23,0,0,0-2-.48h-2.81Z"/><path d="M593.77,479.05H587.5l-.88,2.95H581l6.72-17.9h6l6.72,17.9h-5.79Zm-1.14-3.87-2-6.44-1.95,6.44Z"/><path d="M601.25,476.08l5.26-.33a4,4,0,0,0,.7,1.95,2.91,2.91,0,0,0,2.44,1.09,2.72,2.72,0,0,0,1.83-.56,1.59,1.59,0,0,0,0-2.53,7.08,7.08,0,0,0-2.84-1,12,12,0,0,1-5.18-2.17,4.37,4.37,0,0,1-1.57-3.45,4.73,4.73,0,0,1,.8-2.61,5.36,5.36,0,0,1,2.41-1.93,11.2,11.2,0,0,1,4.4-.7,8.92,8.92,0,0,1,5.23,1.28,5.5,5.5,0,0,1,2.14,4.05l-5.21.31a2.43,2.43,0,0,0-2.71-2.31,2.22,2.22,0,0,0-1.45.41,1.24,1.24,0,0,0-.49,1,1,1,0,0,0,.4.76,4.42,4.42,0,0,0,1.86.66,23.31,23.31,0,0,1,5.19,1.58,5.44,5.44,0,0,1,2.28,2,5,5,0,0,1,.72,2.65,5.72,5.72,0,0,1-1,3.17,6,6,0,0,1-2.66,2.2,10.78,10.78,0,0,1-4.31.75c-3.05,0-5.15-.58-6.33-1.75A7,7,0,0,1,601.25,476.08Z"/><path d="M619.31,476.08l5.26-.33a4,4,0,0,0,.69,1.95,2.93,2.93,0,0,0,2.45,1.09,2.7,2.7,0,0,0,1.82-.56,1.59,1.59,0,0,0,0-2.53,7.09,7.09,0,0,0-2.83-1,12,12,0,0,1-5.19-2.17A4.36,4.36,0,0,1,620,469a4.73,4.73,0,0,1,.8-2.61,5.28,5.28,0,0,1,2.4-1.93,11.2,11.2,0,0,1,4.4-.7,8.92,8.92,0,0,1,5.23,1.28,5.51,5.51,0,0,1,2.15,4.05l-5.22.31a2.73,2.73,0,0,0-.87-1.76,2.77,2.77,0,0,0-1.84-.55,2.24,2.24,0,0,0-1.45.41,1.26,1.26,0,0,0-.49,1,1,1,0,0,0,.41.76,4.42,4.42,0,0,0,1.85.66,23.43,23.43,0,0,1,5.2,1.58,5.57,5.57,0,0,1,2.28,2,5.08,5.08,0,0,1,.71,2.65,5.64,5.64,0,0,1-.95,3.17,5.91,5.91,0,0,1-2.66,2.2,10.78,10.78,0,0,1-4.31.75q-4.56,0-6.32-1.75A6.91,6.91,0,0,1,619.31,476.08Z"/></g></g><g id="guitar_label"><rect id="guitar_label_bg" class="cls-9" x="297.25" y="457" width="123.33" height="32"/><g id="guitar_label-2" data-name="guitar_label"><path d="M316.74,475.52v-3.73h8.55v7.63A17.47,17.47,0,0,1,321,481.7a14.86,14.86,0,0,1-4.48.6,10.93,10.93,0,0,1-5.19-1.08,7.39,7.39,0,0,1-3.11-3.24,10.57,10.57,0,0,1-1.11-4.93,10.22,10.22,0,0,1,1.21-5.09,7.85,7.85,0,0,1,3.54-3.29,11.47,11.47,0,0,1,4.9-.87,13.66,13.66,0,0,1,4.43.54,5.66,5.66,0,0,1,2.44,1.66,7.34,7.34,0,0,1,1.46,2.87l-5.33.95a2.86,2.86,0,0,0-1.12-1.55,3.46,3.46,0,0,0-2-.54,3.63,3.63,0,0,0-2.9,1.26,6.11,6.11,0,0,0-1.08,4,6.25,6.25,0,0,0,1.1,4.15,3.82,3.82,0,0,0,3,1.25,5.75,5.75,0,0,0,1.77-.27,9.67,9.67,0,0,0,1.93-.92v-1.68Z"/><path d="M340.22,464.1h5.51v10.67a9,9,0,0,1-.49,3,6.59,6.59,0,0,1-1.55,2.47,6.22,6.22,0,0,1-2.22,1.48,11.09,11.09,0,0,1-3.87.59,24.76,24.76,0,0,1-2.85-.18,7.44,7.44,0,0,1-2.58-.72,6.69,6.69,0,0,1-1.9-1.55,5.59,5.59,0,0,1-1.17-2.06,10.46,10.46,0,0,1-.52-3V464.1h5.52V475a3.12,3.12,0,0,0,.81,2.29,3.5,3.5,0,0,0,4.49,0,3.08,3.08,0,0,0,.82-2.3Z"/><path d="M349.62,464.1h5.54V482h-5.54Z"/><path d="M357.87,464.1h16.81v4.42H369V482h-5.53V468.52h-5.64Z"/><path d="M386.48,479.05h-6.27l-.88,2.95h-5.64l6.72-17.9h6l6.72,17.9h-5.79Zm-1.14-3.87-2-6.44-1.95,6.44Z"/><path d="M395,482V464.1h9.22a13.53,13.53,0,0,1,3.92.44,4.22,4.22,0,0,1,2.18,1.63,5,5,0,0,1-1.55,7.22,6.33,6.33,0,0,1-1.94.71,5.47,5.47,0,0,1,1.44.66,5.63,5.63,0,0,1,.88.94,6.89,6.89,0,0,1,.78,1.11L412.6,482h-6.24l-3-5.47a4.11,4.11,0,0,0-1-1.38,2.37,2.37,0,0,0-1.36-.41h-.48V482Zm5.56-10.64h2.33a8.77,8.77,0,0,0,1.46-.25,1.44,1.44,0,0,0,.9-.56,1.81,1.81,0,0,0-.2-2.37,3.35,3.35,0,0,0-2.07-.46h-2.42Z"/></g></g><g id="vocals_label"><rect id="vocals_label_bg" class="cls-9" x="61.33" y="457" width="123.33" height="32"/><g id="vocals_label-2" data-name="vocals_label"><path d="M66.07,464.1h5.78l4,12.88,4-12.88h5.61L78.83,482h-6Z"/><path d="M85.73,473.06A8.47,8.47,0,0,1,95,463.8q4.47,0,6.88,2.4a9.05,9.05,0,0,1,2.42,6.72,10.93,10.93,0,0,1-1.06,5.14,7.54,7.54,0,0,1-3,3.13,10.12,10.12,0,0,1-5,1.11,11.47,11.47,0,0,1-5-1,7.49,7.49,0,0,1-3.22-3A10.15,10.15,0,0,1,85.73,473.06Zm5.53,0a6,6,0,0,0,1,3.89,3.81,3.81,0,0,0,5.5,0c.65-.78,1-2.16,1-4.17a5.53,5.53,0,0,0-1-3.69A3.5,3.5,0,0,0,95,468a3.35,3.35,0,0,0-2.69,1.18A6,6,0,0,0,91.26,473.09Z"/><path d="M119.16,474.68l4.85,1.46a9.08,9.08,0,0,1-1.54,3.41,6.64,6.64,0,0,1-2.61,2.06,9.77,9.77,0,0,1-4,.69,11.57,11.57,0,0,1-4.76-.84,7.57,7.57,0,0,1-3.2-3A10.13,10.13,0,0,1,106.6,473q0-4.44,2.36-6.83a10.75,10.75,0,0,1,12-1,8,8,0,0,1,2.88,4.2L119,470.45a4.37,4.37,0,0,0-.53-1.19,3.15,3.15,0,0,0-1.14-1,3.49,3.49,0,0,0-4.38,1.17,6.36,6.36,0,0,0-.76,3.52c0,2,.3,3.35.91,4.08a3.56,3.56,0,0,0,4.93.21A5.44,5.44,0,0,0,119.16,474.68Z"/><path d="M137.7,479.05h-6.28l-.88,2.95H124.9l6.73-17.9h6l6.72,17.9h-5.79Zm-1.15-3.87-2-6.44-1.95,6.44Z"/><path d="M146.14,464.1h5.53v13.49h8.63V482H146.14Z"/><path d="M161.85,476.08l5.26-.33a4,4,0,0,0,.7,1.95,2.91,2.91,0,0,0,2.44,1.09,2.68,2.68,0,0,0,1.82-.56,1.59,1.59,0,0,0,0-2.53,7,7,0,0,0-2.83-1,12.09,12.09,0,0,1-5.19-2.17,4.36,4.36,0,0,1-1.56-3.45,4.73,4.73,0,0,1,.8-2.61,5.31,5.31,0,0,1,2.41-1.93,11.17,11.17,0,0,1,4.4-.7,8.94,8.94,0,0,1,5.23,1.28,5.5,5.5,0,0,1,2.14,4.05l-5.21.31a2.79,2.79,0,0,0-.88-1.76,2.76,2.76,0,0,0-1.83-.55,2.25,2.25,0,0,0-1.46.41,1.25,1.25,0,0,0-.48,1,1,1,0,0,0,.4.76,4.42,4.42,0,0,0,1.85.66,23.43,23.43,0,0,1,5.2,1.58,5.5,5.5,0,0,1,2.28,2,5,5,0,0,1,.71,2.65,5.64,5.64,0,0,1-1,3.17,5.91,5.91,0,0,1-2.66,2.2,10.75,10.75,0,0,1-4.31.75q-4.56,0-6.32-1.75A6.91,6.91,0,0,1,161.85,476.08Z"/></g></g></g><g id="wall"><g id="back_wall"><g class="cls-10"><g id="back_wall-2" data-name="back_wall"><rect id="back_wall-3" data-name="back_wall" class="cls-11" width="960" height="352.83"/><ellipse id="back_wall_highlight" class="cls-12" cx="477.83" cy="172.41" rx="563.17" ry="155.37"/><rect id="back_wall_shadows" class="cls-13" x="-70" y="-25.73" width="1100" height="404.29"/></g><g id="wallboards"><line id="walboard_line1" class="cls-7" x1="22.41" y1="352.25" x2="21.41" y2="-0.59"/><line id="walboard_line2" class="cls-6" x1="54.75" y1="352.83" x2="53.75"/><line id="walboard_line3" class="cls-6" x1="122" y1="352.83" x2="121"/><line id="walboard_line4" class="cls-6" x1="163.75" y1="352.83" x2="162.75"/><line id="walboard_line5" class="cls-8" x1="216.17" y1="352.83" x2="215.17"/><line id="walboard_line6" class="cls-6" x1="251.5" y1="352.83" x2="250.5"/><line id="walboard_line7" class="cls-6" x1="294.5" y1="352.83" x2="293.5"/><line id="walboard_line8" class="cls-6" x1="340.5" y1="352.83" x2="339.5"/><line id="walboard_line9" class="cls-6" x1="387.83" y1="352.83" x2="386.83"/><line id="walboard_line10" class="cls-7" x1="434.5" y1="352.83" x2="433.5"/><line id="walboard_line11" class="cls-6" x1="478.83" y1="352.83" x2="477.83"/><line id="walboard_line12" class="cls-6" x1="524.5" y1="352.83" x2="523.5"/><line id="walboard_line13" class="cls-6" x1="562.5" y1="352.83" x2="561.5"/><line id="walboard_line14" class="cls-7" x1="606.5" y1="352.83" x2="605.5"/><line id="walboard_line15" class="cls-6" x1="649.83" y1="352.83" x2="648.83"/><line id="walboard_line16" class="cls-8" x1="694.83" y1="352.83" x2="693.83"/><line id="walboard_line17" class="cls-6" x1="738.17" y1="352.83" x2="737.17"/><line id="walboard_line18" class="cls-6" x1="778.83" y1="352.83" x2="777.83"/><line id="walboard_line19" class="cls-7" x1="825.33" y1="352.83" x2="824.33"/><line id="walboard_line20" class="cls-6" x1="862.83" y1="352.83" x2="861.83"/><line id="walboard_line21" class="cls-6" x1="907.17" y1="352.83" x2="906.17"/><line id="walboard_line22" class="cls-6" x1="933.83" y1="352.83" x2="932.83"/></g></g></g></g><g id="spotlights"><g id="spotlight4"><g id="light4"><ellipse id="spotlight4_bottom" class="cls-14" cx="835.91" cy="424" rx="107.5" ry="24"/><path id="spotlight4_top" class="cls-15" d="M943.41,424c0-13.25-48.13-24-107.5-24s-107.5,10.75-107.5,24L835.91,9.83Z"/></g><rect id="spotlight_holder_v1" x="810.79" width="5" height="25"/><rect id="spotlight_holder_v2" x="856.04" width="5" height="25"/><rect id="spotlight_holder_h1" x="810.79" y="20" width="50.25" height="5"/><rect id="spotlight" x="818.04" y="9.83" width="35.75" height="42"/><rect id="spotlight_lens" x="813.29" y="51.83" width="45.25" height="2.85"/></g><g id="spotlight3"><g id="light3"><ellipse id="spotlight3_bottom" class="cls-14" cx="598.91" cy="424" rx="107.5" ry="24"/><path id="spotlight3_top" class="cls-15" d="M706.41,424c0-13.25-48.13-24-107.5-24s-107.5,10.75-107.5,24L598.91,9.83Z"/></g><rect id="spotlight_holder_v1-2" data-name="spotlight_holder_v1" x="573.79" width="5" height="25"/><rect id="spotlight_holder_v2-2" data-name="spotlight_holder_v2" x="619.04" width="5" height="25"/><rect id="spotlight_holder_h1-2" data-name="spotlight_holder_h1" x="573.79" y="20" width="50.25" height="5"/><rect id="spotlight-2" data-name="spotlight" x="581.04" y="9.83" width="35.75" height="42"/><rect id="spotlight_lens-2" data-name="spotlight_lens" x="576.29" y="51.83" width="45.25" height="2.85"/></g><g id="spotlight2"><g id="light2"><ellipse id="spotlight2_bottom" class="cls-14" cx="358.91" cy="424" rx="107.5" ry="24"/><path id="spotlight2_top" class="cls-15" d="M466.41,424c0-13.25-48.13-24-107.5-24s-107.5,10.75-107.5,24L358.91,9.83Z"/></g><rect id="spotlight_holder_v1-3" data-name="spotlight_holder_v1" x="333.79" width="5" height="25"/><rect id="spotlight_holder_v2-3" data-name="spotlight_holder_v2" x="379.04" width="5" height="25"/><rect id="spotlight_holder_h1-3" data-name="spotlight_holder_h1" x="333.79" y="20" width="50.25" height="5"/><rect id="spotlight-3" data-name="spotlight" x="341.04" y="9.83" width="35.75" height="42"/><rect id="spotlight_lens-3" data-name="spotlight_lens" x="336.29" y="51.83" width="45.25" height="2.85"/></g><g id="spotlight1"><g id="light1"><ellipse id="spotlight1_bottom" class="cls-14" cx="122.91" cy="424" rx="107.5" ry="24"/><path id="spotlight1_top" class="cls-15" d="M230.41,424c0-13.25-48.13-24-107.5-24s-107.5,10.75-107.5,24L122.91,9.83Z"/></g><rect id="spotlight_holder_v1-4" data-name="spotlight_holder_v1" x="97.25" width="5" height="25"/><rect id="spotlight_holder_v2-4" data-name="spotlight_holder_v2" x="142.5" width="5" height="25"/><rect id="spotlight_holder_h1-4" data-name="spotlight_holder_h1" x="97.25" y="20" width="50.25" height="5"/><rect id="spotlight-4" data-name="spotlight" x="104.5" y="9.83" width="35.75" height="42"/><rect id="spotlight_lens-4" data-name="spotlight_lens" x="99.75" y="51.83" width="45.25" height="2.85"/></g></g></svg>